<svg viewBox="0 0 600 600" xmlns="http://www.w3.org/2000/svg" role="img" aria-labelledby="boxTitle">
<title id="boxTitle">الجهاز مع علبته</title>
<defs>
  <linearGradient id="floor" x1="0" y1="0" x2="0" y2="1">
    <stop offset="0%" stop-color="#ffffff"/>
    <stop offset="100%" stop-color="#eef2ff"/>
  </linearGradient>
  <linearGradient id="boxFront" x1="0" y1="0" x2="0" y2="1">
    <stop offset="0%" stop-color="#0a1f44"/>
    <stop offset="100%" stop-color="#071630"/>
  </linearGradient>
</defs>
<rect width="600" height="600" fill="url(#floor)"/>
<ellipse cx="300" cy="520" rx="220" ry="26" fill="#0a1f44" opacity="0.08"/>

<g transform="translate(320,220)">
  <rect x="0" y="0" width="200" height="260" rx="10" fill="url(#boxFront)"/>
  <rect x="16" y="20" width="168" height="4" fill="#5b8bff" opacity="0.6"/>
  <text x="100" y="70" text-anchor="middle" font-family="Tajawal, Arial, sans-serif" font-size="16" font-weight="800" fill="#ffffff">E80</text>
  <text x="100" y="94" text-anchor="middle" font-family="Tajawal, Arial, sans-serif" font-size="11" fill="#cfe0ff">منظف الأذن الرقمي</text>
  <circle cx="100" cy="160" r="46" fill="none" stroke="#2f6dfb" stroke-width="4"/>
  <circle cx="100" cy="160" r="10" fill="#5b8bff"/>
  <text x="100" y="240" text-anchor="middle" font-family="Tajawal, Arial, sans-serif" font-size="11" fill="#8fb0ff">Type-C · قابل للشحن</text>
</g>

<g transform="translate(110,150)">
  <path d="M60 0 h80 a16 16 0 0 1 16 16 v190 a58 58 0 0 1 -58 58 h-0 a58 58 0 0 1 -58 -58 v-190 a16 16 0 0 1 16 -16 z" fill="#123a8f"/>
  <path d="M78 264 q22 14 44 0 v28 q-22 12 -44 0 z" fill="#dfe8ff"/>
  <circle cx="100" cy="46" r="14" fill="none" stroke="#5b8bff" stroke-width="4"/>
</g>
</svg>
